<svg xmlns="http://www.w3.org/2000/svg" viewBox="0 0 512 512" style="height: 512px; width: 512px;"><defs><filter id="shadow-2" height="300%" width="300%" x="-100%" y="-100%"><feFlood flood-color="rgba(255, 255, 255, 1)" result="flood"></feFlood><feComposite in="flood" in2="SourceGraphic" operator="atop" result="composite"></feComposite><feGaussianBlur in="composite" stdDeviation="15" result="blur"></feGaussianBlur><feOffset dx="0" dy="0" result="offset"></feOffset><feComposite in="SourceGraphic" in2="offset" operator="over"></feComposite></filter></defs><path d="M0 0h512v512H0z" fill="#000000" fill-opacity="0.01"></path><g class="" transform="translate(2,0)" style=""><g><path d="M253.924 31.56L247.672 73.035C206.768 74.635 166.292 89.675 133.439 118.172L51.769 57.542L112.362 139.642C84.262 173.256 69.912 214.47 69.308 255.848L22.068 262.832L69.641 270.002C72.025 308.936 86.607 347.262 113.406 378.76L51.771 462.27L135.101 400.406C167.279 427.663 206.545 442.204 246.291 444.053L253.921 494.688L261.394 444.138C262.247 444.108 263.101 444.086 263.954 444.045C263.111 444.007 262.271 443.955 261.43 443.905L277.623 334.375C284.607 332.105 291.143 328.849 297.068 324.765L341.254 349.553L316.32 305.6C320.296 299.884 323.495 293.594 325.783 286.88L485.78 262.83L440.633 256.176C440.093 214.123 425.375 172.219 396.439 138.269L455.995 58.049L455.993 58.049L375.601 117.382C342.312 88.88 301.33 74.08 260.045 72.96L253.925 31.56Z" class="selected" fill="#ddfcad" fill-opacity="1" filter="url(#shadow-2)"></path><path d="M271.529 106.082C314.796 106.082 358.065 122.589 391.077 155.602C419.213 183.738 435.35 219.325 439.505 256.012L326.183 239.307C323.929 232.312 320.69 225.763 316.618 219.824L341.254 176.4L298.031 200.922C291.797 196.482 284.868 192.96 277.428 190.564L264.958 106.221C267.148 106.137 269.338 106.083 271.528 106.083Z" class="" fill="#93ffd8" fill-opacity="1"></path><path d="M242.309 108.622L229.897 190.962C223.053 193.292 216.653 196.572 210.851 200.652L168.103 176.398L192.21 219.373C188.026 225.383 184.69 232.025 182.38 239.133L104.234 250.686C109.294 215.893 125.208 182.374 151.98 155.602C177.53 130.052 209.226 114.396 242.31 108.622Z" class="" fill="#93ffd8" fill-opacity="1"></path><path d="M102.462 274.948L182.78 287.053C185.14 293.918 188.456 300.333 192.576 306.143L167.75 349.903L211.713 324.961C217.227 328.724 223.271 331.764 229.701 333.973L246.026 442.279C211.606 437.057 178.486 421.206 151.981 394.699C118.918 361.637 102.413 318.284 102.464 274.949Z" class="" fill="#93ffd8" fill-opacity="1"></path></g></g></svg>