<svg xmlns="http://www.w3.org/2000/svg" viewBox="0 0 512 512" style="height: 512px; width: 512px;"><path d="M0 0h512v512H0z" fill="#000000" fill-opacity="0.01"></path><g class="" transform="translate(2,0)" style=""><g><path d="M115.656 28.16C42.89 96.712 27.625 185.73 46.39 263.08C50.414 254.813 54.924 246.792 59.897 239.058C49.238 172.145 66.094 99.583 128 41.26Z" class="" fill="#ffffff" fill-opacity="0"></path><path d="M396.344 28.16L384 41.26C445.906 99.583 462.762 172.145 452.104 239.058C457.077 246.791 461.587 254.812 465.611 263.079C484.375 185.731 469.11 96.713 396.344 28.159Z" class="" fill="#93ffd8" fill-opacity="0"></path><path d="M194.365 69.613C194.13 69.618 193.896 69.642 193.665 69.683C165.855 74.917 143.302 100.271 125.881 131.717C114.87 151.592 106.176 173.204 99.215 192.559C131.025 163.589 170.877 143.312 215 135.461L215 115.84L297 115.84L297 135.451C337.735 142.701 374.826 160.553 405.313 186.049C404.65 182.355 403.851 178.602 402.867 174.879C398.145 157.004 389.493 139.892 378.738 132.141C375.966 130.142 378.431 130.833 374.654 131.621C370.877 132.409 363.396 134.285 351.654 133.834C343.024 133.503 336.154 127.379 332.971 121.262C329.787 115.144 328.528 108.692 327.215 102.795C325.902 96.898 324.535 91.557 323.063 88.727C321.589 85.896 321.772 85.915 319.654 85.834C311.562 85.524 291.09 89.24 274.014 93.287C256.937 97.334 242.488 101.488 242.488 101.488L236.791 103.127L233.035 98.541C233.035 98.541 226.128 90.136 217.156 82.275C212.67 78.345 207.692 74.624 203.283 72.305C199.426 70.275 196.204 69.555 194.365 69.613Z" class="" fill="#93ffd8" fill-opacity="1"></path><path d="M233 133.841L233 149.841L279 149.841L279 133.841Z" class="" fill="#93ffd8" fill-opacity="1"></path><path d="M215 153.753C129.075 170.309 61.465 237.919 44.908 323.84L125.27 323.84C139.345 279.042 175.848 244.096 221.568 232.223L215.27 207.023L212.473 195.84L299.527 195.84L290.432 232.223C336.152 244.096 372.655 279.043 386.73 323.84L467.092 323.84C450.535 237.919 382.925 170.309 297 153.753L297 167.841L215 167.841Z" class="" fill="#93ffd8" fill-opacity="1"></path><path d="M235.527 213.841L247.027 259.841L264.973 259.841L276.473 213.841Z" class="" fill="#93ffd8" fill-opacity="1"></path><path d="M225.927 249.661C188.029 259.494 157.532 287.489 144.23 323.841L247 323.841L247 277.841L232.973 277.841Z" class="" fill="#93ffd8" fill-opacity="1"></path><path d="M286.072 249.661L279.027 277.841L265 277.841L265 323.841L367.77 323.841C354.468 287.489 323.971 259.494 286.072 249.661Z" class="" fill="#93ffd8" fill-opacity="1"></path><path d="M25 341.841L25 371.841L487 371.841L487 341.841Z" class="" fill="#93ffd8" fill-opacity="1"></path><path d="M42.451 389.841C44.478 407.401 48.674 424.642 54.943 441.169L60.271 435.841L138.879 435.841C130.418 421.931 124.357 406.406 121.291 389.841Z" class="" fill="#93ffd8" fill-opacity="1"></path><path d="M139.627 389.841C143.176 406.492 150.275 422.182 160.439 435.841L198.354 435.841L185.211 389.841Z" class="selected" fill="#93ffd8" fill-opacity="1"></path><path d="M203.932 389.841L230.789 483.841L281.211 483.841L308.068 389.841Z" class="" fill="#93ffd8" fill-opacity="1"></path><path d="M326.789 389.841L313.646 435.841L351.561 435.841C361.725 422.182 368.824 406.492 372.373 389.841Z" class="" fill="#93ffd8" fill-opacity="1"></path><path d="M390.709 389.841C387.643 406.406 381.582 421.931 373.121 435.841L451.729 435.841L457.057 441.169C463.326 424.642 467.522 407.401 469.549 389.841Z" class="" fill="#93ffd8" fill-opacity="1"></path><path d="M67.729 453.841L37.727 483.841L212.068 483.841L203.496 453.841Z" class="" fill="#93ffd8" fill-opacity="1"></path><path d="M308.504 453.841L299.932 483.841L474.273 483.841L444.271 453.841Z" class="" fill="#93ffd8" fill-opacity="1"></path></g></g></svg>